<svg id="Capa_1" enable-background="new 0 0 512.599 512.599" height="512" viewBox="0 0 512.599 512.599" width="512" xmlns="http://www.w3.org/2000/svg"><g><path d="m457.21 512.599h-401.821c-30.59 0-55.389-24.799-55.389-55.389v-401.821c0-30.59 24.799-55.389 55.389-55.389h401.82c30.591 0 55.389 24.799 55.389 55.389v401.82c.001 30.591-24.798 55.39-55.388 55.39z"/><g fill="#fff"><path d="m422.92 314.538c-.208-.628-.48-1.195-.81-1.711-1.997-3.785-6.853-4.917-14.487-3.339-23.776 4.906-32.982 1.886-36.32-.275 19.299-29.453 35.161-65.028 43.733-98.214 3.903-15.11 11.478-50.673 1.757-68.044-.642-1.213-1.36-2.346-2.169-3.38-18.543-23.694-45.756-36.402-78.7-36.752-21.507-.21-39.842 4.979-44.811 6.895-2.413-.452-4.887-.843-7.419-1.173-5.911-1.077-12.188-1.728-18.859-1.838-17.001-.27-31.692 3.797-43.859 12.088-12.329-4.619-68.865-23.655-103.853 1.132-19.541 13.844-28.562 38.59-26.813 73.549.588 11.763 7.288 47.945 17.865 82.596 6.613 21.665 13.499 38.854 20.614 51.511 7.952 14.298 16.191 22.912 24.652 25.735 6.432 2.144 16.291 2.071 26.721-10.468 11.522-13.855 22.87-26.256 27.964-31.738 6.257 3.387 13.035 5.213 19.99 5.424.002.02.004.04.006.06-1.412 1.673-2.569 3.139-3.556 4.392-4.873 6.186-5.887 7.474-21.573 10.704-4.462.92-16.313 3.363-16.486 11.67-.037 1.761.473 3.323 1.323 4.701 3.265 6.082 13.251 8.765 14.594 9.1 19.193 4.802 36.015 1.328 48.484-9.758-.245 32.082 1.115 63.523 4.968 73.16 3.182 7.951 10.954 27.387 35.506 27.385 3.602-.001 7.569-.419 11.932-1.354 25.625-5.492 36.751-16.818 41.056-41.786 2.161-12.521 5.775-41.349 7.748-58.979.243-1.011.514-1.735.819-1.958.011-.007 1.002-.676 6.143.441.21.046.423.078.637.097l3.651.322c.071.005.143.01.214.014 12.182.554 27.489-2.052 36.4-6.195 9.257-4.298 25.966-14.846 22.938-24.014m-304.702-40.932c-10.692-35.027-16.939-70.25-17.433-80.126-1.561-31.226 5.997-52.962 22.467-64.607 26.413-18.675 69.598-7.777 87.835-1.87-.046.047-.094.089-.14.135-29.103 29.394-28.413 79.611-28.342 82.681-.003 1.184.096 2.861.233 5.168.5 8.445 1.432 24.166-1.057 41.968-2.313 16.544 2.786 32.735 13.988 44.424 1.159 1.211 2.37 2.346 3.622 3.417-4.988 5.34-15.825 17.149-27.36 31.027-8.163 9.813-13.8 7.934-15.655 7.314-5.637-1.879-11.696-8.446-17.811-19.026-6.891-12.067-13.849-29.214-20.347-50.505m86.387 73.155c-2.461-.615-4.704-1.628-6.216-2.548 1.278-.566 3.415-1.296 6.95-2.024 18.454-3.8 21.304-6.481 27.529-14.384 1.426-1.811 3.043-3.865 5.281-6.365.489-.545.844-1.184 1.059-1.866 2.455-2.173 3.917-1.58 6.282-.6 2.242.929 4.427 3.74 5.313 6.833.418 1.461.89 4.235-.65 6.391-13 18.204-31.943 17.969-45.548 14.563m30.113-57.349-.756 2.03c-1.912 5.127-3.691 9.894-4.794 14.421-9.599-.029-18.935-4.13-26.037-11.539-9.029-9.421-13.13-22.526-11.252-35.957 2.629-18.806 1.659-35.185 1.137-43.984-.073-1.231-.137-2.31-.176-3.163 4.252-3.769 23.957-14.328 38.006-11.107 6.413 1.469 10.32 5.835 11.944 13.345 8.408 38.882 1.112 55.088-4.748 68.11-1.208 2.685-2.349 5.219-3.324 7.844m105.894 65.755c-1.425 14.912-4.496 30.179-7.482 44.13-4.27 19.948-12.628 32.021-34.761 36.763-21.795 4.676-25.659-7.143-29.066-17.568-.378-1.155-.735-2.246-1.107-3.26-3.098-8.424-2.747-20.303-2.263-36.743.237-8.071-.359-27.342-4.749-38.054.063-4.217.152-8.497.273-12.825.016-.564-.064-1.107-.219-1.619-.135-.987-.343-1.985-.631-2.99-1.763-6.159-6.058-11.311-11.212-13.447-2.047-.848-5.807-2.404-10.322-1.249.963-3.969 2.633-8.446 4.443-13.298l.761-2.044c.855-2.3 1.927-4.685 3.064-7.208 6.133-13.626 14.533-32.288 5.416-74.45-3.416-15.791-14.822-23.503-32.105-21.712-10.364 1.073-19.844 5.255-24.573 7.651-1.016.515-1.946 1.013-2.816 1.498 1.319-15.912 6.307-45.647 24.96-64.459 1.397-1.409 2.854-2.728 4.361-3.968 10.82-8.206 26.455-13.162 42.376-12.898 5.882.095 11.529.487 16.886 1.165 27.883 5.097 46.648 20.806 58.038 34.265 11.71 13.838 18.051 27.776 20.582 35.294-19.03-1.935-31.975 1.822-38.535 11.202-14.276 20.405 7.808 60.008 18.422 79.041 1.945 3.49 3.627 6.502 4.155 7.782 3.456 8.379 7.93 13.97 11.198 18.053 1.001 1.25 1.972 2.463 2.711 3.522-5.765 1.662-16.118 5.503-15.175 24.691-.177 2.248-.608 6.427-1.199 11.718-.664 2.986-1.011 6.618-1.431 11.017m12.805-23.313c-.582-11.958 3.871-13.208 8.581-14.531.665-.186 1.311-.372 1.942-.584.564.499 1.198.998 1.93 1.481 8.201 5.415 22.754 6.058 43.24 1.932-2.898 2.544-7.462 5.744-13.709 8.645-5.894 2.736-15.757 4.788-25.126 5.228-10.354.489-15.617-1.16-16.858-2.171m8.191-133.324c-.085 5.045-.779 9.625-1.515 14.407-.792 5.142-1.611 10.459-1.817 16.913-.204 6.282.58 12.812 1.339 19.127 1.533 12.756 3.107 25.889-2.984 38.847-.947-1.68-1.86-3.514-2.697-5.546-.757-1.834-2.4-4.782-4.676-8.86-8.853-15.878-29.586-53.059-18.972-68.23 5.457-7.804 19.281-8.141 31.322-6.658m3.284 100.86c-.398-.507-.805-1.019-1.225-1.544-.168-.21-.339-.424-.512-.64 10.444-17.248 8.402-34.315 6.584-49.446-.747-6.21-1.452-12.074-1.273-17.582.186-5.841.958-10.848 1.704-15.691.919-5.967.828-11.826 1.594-19.421.079-.783.27-1.665.169-2.736-.657-6.981-8.625-27.87-24.87-46.78-8.737-10.17-21.417-21.527-38.661-29.325 7.552-1.531 17.728-2.925 29.104-2.676 29.502.656 52.842 11.699 69.375 32.822.341.436.658.924.961 1.442 10.399 19.494-3.971 90.24-42.95 151.577"/><path d="m229.313 205.417c-3.708-.517-7.066-.04-8.765 1.247-.956.723-1.252 1.562-1.331 2.139-.213 1.529.858 3.22 1.515 4.092 1.862 2.467 4.583 4.164 7.275 4.538.39.054.778.08 1.164.08 4.491 0 8.573-3.495 8.932-6.077.452-3.231-4.241-5.386-8.79-6.019"/><path d="m343.01 202.859c-4.272.595-8.415 2.523-8.068 5.062.277 1.975 3.842 5.346 8.062 5.345.356 0 .716-.024 1.079-.074 2.816-.391 4.884-2.179 5.865-3.211 1.496-1.571 2.361-3.323 2.202-4.462h-.001c-.353-2.533-4.862-3.257-9.139-2.66"/></g></g></svg>